<svg width="224" height="44" viewBox="0 0 224 44" fill="none" xmlns="http://www.w3.org/2000/svg">
<g clip-path="url(#clip0_1_115)">
<path fill-rule="evenodd" clip-rule="evenodd" d="M183.813 31.6986V29.6347C184.379 29.5342 184.918 29.3881 185.429 29.1963C186.45 28.8036 187.314 28.2648 188.019 27.5707C188.725 26.8767 189.273 26.0639 189.663 25.1324C190.053 24.2009 190.248 23.1963 190.248 22.1004C190.248 21.0045 190.053 20.0091 189.663 19.0685C189.273 18.1187 188.725 17.2968 188.019 16.6027C187.314 15.9086 186.45 15.3607 185.429 14.9589C184.918 14.758 184.379 14.6118 183.813 14.5114V12.4475C184.686 12.5662 185.512 12.7762 186.292 13.0685C187.583 13.5616 188.697 14.2465 189.635 15.1141C190.573 15.9908 191.288 17.0137 191.798 18.21C192.309 19.3972 192.56 20.6758 192.56 22.0548C192.56 23.4338 192.309 24.7123 191.798 25.9086C191.288 27.105 190.563 28.1461 189.635 29.0137C188.697 29.8904 187.583 30.5753 186.292 31.0776C185.512 31.379 184.686 31.589 183.813 31.7077V31.6986ZM197.49 12.3196V31.8173H199.728V12.3196H197.49ZM214.965 12.1826H212.867L203.832 31.8173H206.126C210.239 22.7945 209.069 25.3333 213.888 14.7762C218.661 25.315 217.528 22.8036 221.595 31.8173H224L214.965 12.1826ZM148.334 16.0274V31.8173H150.571V12.3196H148.306L141.082 22.9589L133.858 12.3196H131.592V31.8173H133.774V16.0548L140.998 26.4749H141.11L148.334 16.0274ZM183.822 12.4383V14.5023C183.256 14.4018 182.662 14.3561 182.039 14.3561H177.397V29.7899H182.039C182.662 29.7899 183.256 29.7443 183.822 29.6438V31.7077C183.247 31.7899 182.652 31.8265 182.039 31.8265H175.159V12.3196H182.039C182.652 12.3196 183.247 12.3561 183.822 12.4383ZM170.516 12.3196H156.189V14.3287H170.516V12.3196ZM156.189 20.9863V31.8173H170.656V29.8082H158.418V22.9863H169.235V20.9771H156.18L156.189 20.9863Z" fill="white"/>
<path fill-rule="evenodd" clip-rule="evenodd" d="M121.573 44C122.353 44 122.994 34.1187 122.994 22C122.994 9.88128 122.353 0 121.573 0C120.793 0 120.153 9.88128 120.153 22C120.153 34.1187 120.793 44 121.573 44Z" fill="white"/>
<path fill-rule="evenodd" clip-rule="evenodd" d="M102.631 31.7353V28.6028C103.105 28.5206 103.55 28.4019 103.977 28.2375C104.822 27.9088 105.556 27.4521 106.15 26.8677C106.744 26.2832 107.209 25.58 107.543 24.7672C107.877 23.9636 108.035 23.0686 108.035 22.1005C108.035 21.1325 107.868 20.2375 107.543 19.4339C107.209 18.6211 106.744 17.9179 106.15 17.3243C105.556 16.7216 104.832 16.2649 103.977 15.9179C103.55 15.7535 103.105 15.6257 102.631 15.5435V12.4019C103.615 12.5115 104.544 12.7307 105.417 13.0595C106.707 13.5526 107.822 14.2375 108.759 15.1051C109.697 15.9818 110.412 17.0047 110.923 18.201C111.434 19.3882 111.684 20.6668 111.684 22.0458C111.684 23.4247 111.434 24.7033 110.923 25.8996C110.412 27.096 109.688 28.1371 108.759 29.0047C107.822 29.8814 106.707 30.5663 105.417 31.0686C104.544 31.4065 103.615 31.6348 102.631 31.7444V31.7353ZM9.79605 15.4978H16.0822V12.3197H0V15.4978H6.28619V31.8174H9.79605V15.4978ZM102.622 12.4019V15.5435C102.148 15.4613 101.656 15.4156 101.127 15.4156H97.2084V28.7307H101.127C101.647 28.7307 102.148 28.6942 102.622 28.612V31.7444C102.148 31.7992 101.656 31.8266 101.145 31.8266H93.7543V12.3197H101.145C101.647 12.3197 102.139 12.3471 102.622 12.4019ZM34.4301 12.3197H19.7592V15.4156H34.4301V12.3197ZM19.7592 20.4293V31.8174H34.5694V28.7216H23.2134V23.5161H33.158V20.4202H19.7592V20.4293ZM41.6541 17.4247C41.6541 16.7763 41.9327 16.2193 42.4991 15.7718C43.0655 15.3152 43.8548 15.0868 44.8761 15.0868C45.7861 15.0868 46.6775 15.2604 47.5689 15.5983C48.4603 15.9453 49.3517 16.4384 50.2616 17.0868L52.128 14.4932C51.1066 13.6987 50.0202 13.0868 48.8596 12.6668C47.6989 12.2467 46.3897 12.0366 44.9411 12.0366C43.9569 12.0366 43.0562 12.1736 42.2298 12.4384C41.4034 12.7033 40.6884 13.096 40.1035 13.5983C39.5092 14.1005 39.0542 14.6942 38.7107 15.3974C38.3764 16.0914 38.2093 16.8677 38.2093 17.7261C38.2093 18.6394 38.3578 19.4065 38.6457 20.0366C38.9428 20.6668 39.3699 21.2056 39.927 21.6531C40.4842 22.1005 41.1806 22.4658 41.9977 22.7672C42.8241 23.0686 43.7619 23.3334 44.8204 23.5709C45.749 23.79 46.4918 24.0092 47.0768 24.2101C47.6525 24.4111 48.1074 24.6302 48.4417 24.8677C48.776 25.096 48.9988 25.3517 49.1195 25.6348C49.2403 25.9088 49.3053 26.2284 49.3053 26.5846C49.3053 27.3426 48.9896 27.9453 48.3582 28.3928C47.7267 28.8403 46.8725 29.0595 45.7954 29.0595C44.5512 29.0595 43.4369 28.8403 42.4527 28.4019C41.4684 27.9636 40.5027 27.3426 39.5371 26.5206L37.4386 28.9681C38.6271 30.0275 39.9178 30.8129 41.3198 31.3243C42.7127 31.8357 44.1797 32.0914 45.7118 32.0914C46.7518 32.0914 47.7082 31.9636 48.5717 31.6987C49.4353 31.443 50.1781 31.0595 50.7909 30.5572C51.413 30.0549 51.8866 29.443 52.2394 28.7216C52.583 28.0001 52.7594 27.169 52.7594 26.2467C52.7594 25.4339 52.6201 24.7216 52.3509 24.1188C52.0723 23.5161 51.673 22.9864 51.1438 22.5298C50.6145 22.0732 49.9459 21.6896 49.1381 21.37C48.3396 21.0503 47.411 20.7672 46.3711 20.5024C45.424 20.2832 44.644 20.064 44.0219 19.8631C43.4091 19.6622 42.9262 19.4339 42.5734 19.1964C42.2205 18.959 41.9884 18.6942 41.8491 18.4202C41.7191 18.1462 41.6541 17.8083 41.6541 17.4156V17.4247ZM64.8211 15.5069H71.1073V12.3289H55.025V15.5069H61.3112V31.8266H64.8211V15.4978V15.5069ZM89.4551 12.3289H74.7843V15.4247H89.4551V12.3289ZM74.7843 20.4384V31.8266H89.5944V28.7307H78.2384V23.5252H88.1831V20.4293H74.7843V20.4384Z" fill="white"/>
</g>
<defs>
<clipPath id="clip0_1_115">
<rect width="224" height="44" fill="white"/>
</clipPath>
</defs>
</svg>
